<svg width="342" height="88" viewBox="0 0 342 88" fill="none" xmlns="http://www.w3.org/2000/svg">
<rect x="242" y="7" width="100" height="81" fill="#0094FF"/>
<path d="M32.76 48.8V32.888H32.184L21.6 58.736L11.016 32.888H10.44V48.8V74H4.896V23.744H12.672L21.528 45.92H21.96L30.816 23.744H38.304V74H32.76V48.8ZM74.2759 28.64C72.5959 28.64 71.4199 28.304 70.7479 27.632C70.0759 26.912 69.7399 26.024 69.7399 24.968V23.816C69.7399 22.76 70.0759 21.896 70.7479 21.224C71.4199 20.504 72.5959 20.144 74.2759 20.144C75.9559 20.144 77.1319 20.504 77.8039 21.224C78.4759 21.896 78.8119 22.76 78.8119 23.816V24.968C78.8119 26.024 78.4759 26.912 77.8039 27.632C77.1319 28.304 75.9559 28.64 74.2759 28.64ZM58.0039 69.104H71.3959V41.744H58.0039V36.848H77.1559V69.104H89.6839V74H58.0039V69.104ZM106.288 69.104H117.16V41.744H106.288V36.848H122.92V46.208H123.28C124.048 43.28 125.488 41 127.6 39.368C129.76 37.688 132.496 36.848 135.808 36.848H140.992V42.608H134.008C130.696 42.608 128.008 43.568 125.944 45.488C123.928 47.408 122.92 49.928 122.92 53.048V69.104H137.32V74H106.288V69.104ZM186.756 74C184.5 74 182.892 73.424 181.932 72.272C180.972 71.12 180.372 69.68 180.132 67.952H179.772C178.956 70.112 177.636 71.816 175.812 73.064C174.036 74.264 171.636 74.864 168.612 74.864C164.724 74.864 161.628 73.856 159.324 71.84C157.02 69.824 155.868 67.064 155.868 63.56C155.868 60.104 157.116 57.44 159.612 55.568C162.156 53.696 166.236 52.76 171.852 52.76H179.772V49.088C179.772 46.352 179.004 44.312 177.468 42.968C175.932 41.576 173.748 40.88 170.916 40.88C168.42 40.88 166.38 41.384 164.796 42.392C163.212 43.352 161.94 44.672 160.98 46.352L157.092 43.472C157.572 42.512 158.22 41.576 159.036 40.664C159.852 39.752 160.86 38.96 162.06 38.288C163.26 37.568 164.628 37.016 166.164 36.632C167.7 36.2 169.404 35.984 171.276 35.984C175.644 35.984 179.1 37.088 181.644 39.296C184.236 41.504 185.532 44.576 185.532 48.512V68.96H190.716V74H186.756ZM169.62 70.04C171.108 70.04 172.452 69.872 173.652 69.536C174.9 69.152 175.98 68.672 176.892 68.096C177.804 67.472 178.5 66.752 178.98 65.936C179.508 65.072 179.772 64.16 179.772 63.2V57.08H171.852C168.396 57.08 165.876 57.56 164.292 58.52C162.708 59.48 161.916 60.872 161.916 62.696V64.208C161.916 66.128 162.588 67.592 163.932 68.6C165.324 69.56 167.22 70.04 169.62 70.04ZM225.392 28.64C223.712 28.64 222.536 28.304 221.864 27.632C221.192 26.912 220.856 26.024 220.856 24.968V23.816C220.856 22.76 221.192 21.896 221.864 21.224C222.536 20.504 223.712 20.144 225.392 20.144C227.072 20.144 228.248 20.504 228.92 21.224C229.592 21.896 229.928 22.76 229.928 23.816V24.968C229.928 26.024 229.592 26.912 228.92 27.632C228.248 28.304 227.072 28.64 225.392 28.64ZM209.12 69.104H222.512V41.744H209.12V36.848H228.272V69.104H240.8V74H209.12V69.104Z" fill="#0094FF"/>
<path d="M284.619 48.8V32.888H284.043L273.459 58.736L262.875 32.888H262.299V48.8V74H256.755V23.744H264.531L273.387 45.92H273.819L282.675 23.744H290.163V74H284.619V48.8ZM303.671 74V23.744H309.719V68.744H333.551V74H303.671Z" fill="white"/>
<rect x="239" y="69" width="5" height="5" fill="#0094FF"/>
</svg>
