<svg width="339" height="176" viewBox="0 0 339 176" fill="none" xmlns="http://www.w3.org/2000/svg">
<path d="M159.85 85.75V74.8H99.55V49H149.5V38.05H99.55V13.6H88V38.05H39.55V49H88V74.8H28.75V85.75H81.7C68.2 105.1 45.55 123.7 24.7 133C27.25 135.1 30.85 139.45 32.8 142.15C52.45 132.25 73.45 114.4 88 94.45V150.55H99.55V93.85C114.1 113.8 135.4 132.4 155.2 142.15C157.15 139.3 160.75 134.95 163.3 132.85C142.45 123.7 119.65 104.95 106 85.75H159.85ZM310.3 90.25V79.6H249.7V42.25H304V31.6H249.7V13.75H238.15V31.6H185.05V42.25H238.15V79.6H178V90.25H230.65C217 108.55 194.95 126.1 174.85 134.8C177.25 137.05 180.85 141.25 182.65 143.95C202.3 134.2 223.6 116.2 238.15 96.4V150.4H249.7V96.1C264.25 115.9 285.7 134.65 305.65 144.55C307.45 141.55 311.05 137.35 313.45 135.1C293.2 126.4 271 108.55 257.35 90.25H310.3ZM197.2 49.45C203.05 58.15 208.75 70.3 210.7 77.8L221.2 73.75C219.1 65.95 212.95 54.4 206.95 45.7L197.2 49.45ZM276.4 78.1C281.8 70.75 288.4 58.9 293.65 48.7L282.25 45.1C278.65 54.1 272.2 66.85 267.1 74.95L276.4 78.1Z" fill="#0094FF" fill-opacity="0.1"/>
<path d="M3.888 115V77.848H9.216V82.168H9.504C10.08 80.728 10.896 79.504 11.952 78.496C13.008 77.488 14.568 76.984 16.632 76.984C18.792 76.984 20.4 77.536 21.456 78.64C22.512 79.696 23.16 81.088 23.4 82.816H23.616C24.288 81.136 25.248 79.744 26.496 78.64C27.744 77.536 29.472 76.984 31.68 76.984C34.704 76.984 36.72 78.04 37.728 80.152C38.784 82.264 39.312 85.288 39.312 89.224V115H33.984V90.16C33.984 86.992 33.648 84.808 32.976 83.608C32.352 82.36 31.176 81.736 29.448 81.736C27.912 81.736 26.664 82.24 25.704 83.248C24.744 84.208 24.264 85.696 24.264 87.712V115H18.936V90.16C18.936 86.992 18.6 84.808 17.928 83.608C17.304 82.36 16.152 81.736 14.472 81.736C12.936 81.736 11.664 82.24 10.656 83.248C9.696 84.208 9.216 85.696 9.216 87.712V115H3.888ZM74.2759 69.64C72.5959 69.64 71.4199 69.304 70.7479 68.632C70.0759 67.912 69.7399 67.024 69.7399 65.968V64.816C69.7399 63.76 70.0759 62.896 70.7479 62.224C71.4199 61.504 72.5959 61.144 74.2759 61.144C75.9559 61.144 77.1319 61.504 77.8039 62.224C78.4759 62.896 78.8119 63.76 78.8119 64.816V65.968C78.8119 67.024 78.4759 67.912 77.8039 68.632C77.1319 69.304 75.9559 69.64 74.2759 69.64ZM58.0039 110.104H71.3959V82.744H58.0039V77.848H77.1559V110.104H89.6839V115H58.0039V110.104ZM106.288 110.104H117.16V82.744H106.288V77.848H122.92V87.208H123.28C124.048 84.28 125.488 82 127.6 80.368C129.76 78.688 132.496 77.848 135.808 77.848H140.992V83.608H134.008C130.696 83.608 128.008 84.568 125.944 86.488C123.928 88.408 122.92 90.928 122.92 94.048V110.104H137.32V115H106.288V110.104ZM186.756 115C184.5 115 182.892 114.424 181.932 113.272C180.972 112.12 180.372 110.68 180.132 108.952H179.772C178.956 111.112 177.636 112.816 175.812 114.064C174.036 115.264 171.636 115.864 168.612 115.864C164.724 115.864 161.628 114.856 159.324 112.84C157.02 110.824 155.868 108.064 155.868 104.56C155.868 101.104 157.116 98.44 159.612 96.568C162.156 94.696 166.236 93.76 171.852 93.76H179.772V90.088C179.772 87.352 179.004 85.312 177.468 83.968C175.932 82.576 173.748 81.88 170.916 81.88C168.42 81.88 166.38 82.384 164.796 83.392C163.212 84.352 161.94 85.672 160.98 87.352L157.092 84.472C157.572 83.512 158.22 82.576 159.036 81.664C159.852 80.752 160.86 79.96 162.06 79.288C163.26 78.568 164.628 78.016 166.164 77.632C167.7 77.2 169.404 76.984 171.276 76.984C175.644 76.984 179.1 78.088 181.644 80.296C184.236 82.504 185.532 85.576 185.532 89.512V109.96H190.716V115H186.756ZM169.62 111.04C171.108 111.04 172.452 110.872 173.652 110.536C174.9 110.152 175.98 109.672 176.892 109.096C177.804 108.472 178.5 107.752 178.98 106.936C179.508 106.072 179.772 105.16 179.772 104.2V98.08H171.852C168.396 98.08 165.876 98.56 164.292 99.52C162.708 100.48 161.916 101.872 161.916 103.696V105.208C161.916 107.128 162.588 108.592 163.932 109.6C165.324 110.56 167.22 111.04 169.62 111.04ZM225.392 69.64C223.712 69.64 222.536 69.304 221.864 68.632C221.192 67.912 220.856 67.024 220.856 65.968V64.816C220.856 63.76 221.192 62.896 221.864 62.224C222.536 61.504 223.712 61.144 225.392 61.144C227.072 61.144 228.248 61.504 228.92 62.224C229.592 62.896 229.928 63.76 229.928 64.816V65.968C229.928 67.024 229.592 67.912 228.92 68.632C228.248 69.304 227.072 69.64 225.392 69.64ZM209.12 110.104H222.512V82.744H209.12V77.848H228.272V110.104H240.8V115H209.12V110.104ZM284.619 89.8V73.888H284.043L273.459 99.736L262.875 73.888H262.299V89.8V115H256.755V64.744H264.531L273.387 86.92H273.819L282.675 64.744H290.163V115H284.619V89.8ZM303.671 115V64.744H309.719V109.744H333.551V115H303.671Z" fill="#0094FF"/>
</svg>
